0
SECTION
2
HEADER
9
$INSUNITS
70
4
9
$ACADVER
1
AC1014
9
$HANDSEED
5
FFFF
0
ENDSEC
0
SECTION
2
TABLES
0
TABLE
2
VPORT
5
8
100
AcDbSymbolTable
0
ENDTAB
0
TABLE
2
LTYPE
5
5
100
AcDbSymbolTable
0
LTYPE
5
14
100
AcDbSymbolTableRecord
100
AcDbLinetypeTableRecord
2
BYBLOCK
70
0
0
LTYPE
5
15
100
AcDbSymbolTableRecord
100
AcDbLinetypeTableRecord
2
BYLAYER
70
0
0
LTYPE
5
16
100
AcDbSymbolTableRecord
100
AcDbLinetypeTableRecord
2
DASHED
70
0
3
Dashed __ __ __ __ __ __ __ __ __ __ __ __ __ _
72
65
73
2
40
0.75
49
0.5
74
0
49
-0.25
74
0
0
ENDTAB
0
TABLE
2
LAYER
5
2
100
AcDbSymbolTable
70
2
0
LAYER
5
50
100
AcDbSymbolTableRecord
100
AcDbLayerTableRecord
2
0
70
0
62
7
6
CONTINUOUS
0
ENDTAB
0
TABLE
2
STYLE
5
3
100
AcDbSymbolTable
70
1
0
STYLE
5
11
100
AcDbSymbolTableRecord
100
AcDbTextStyleTableRecord
2
STANDARD
70
0
0
ENDTAB
0
TABLE
2
VIEW
5
6
100
AcDbSymbolTable
70
0
0
ENDTAB
0
TABLE
2
UCS
5
7
100
AcDbSymbolTable
70
0
0
ENDTAB
0
TABLE
2
APPID
5
9
100
AcDbSymbolTable
70
2
0
APPID
5
12
100
AcDbSymbolTableRecord
100
AcDbRegAppTableRecord
2
ACAD
70
0
0
ENDTAB
0
TABLE
2
DIMSTYLE
5
A
100
AcDbSymbolTable
70
1
0
ENDTAB
0
TABLE
2
BLOCK_RECORD
5
1
100
AcDbSymbolTable
70
1
0
BLOCK_RECORD
5
1F
100
AcDbSymbolTableRecord
100
AcDbBlockTableRecord
2
*MODEL_SPACE
0
BLOCK_RECORD
5
1B
100
AcDbSymbolTableRecord
100
AcDbBlockTableRecord
2
*PAPER_SPACE
0
ENDTAB
0
ENDSEC
0
SECTION
2
BLOCKS
0
BLOCK
5
20
100
AcDbEntity
100
AcDbBlockBegin
2
*MODEL_SPACE
0
ENDBLK
5
21
100
AcDbEntity
100
AcDbBlockEnd
0
BLOCK
5
1C
100
AcDbEntity
100
AcDbBlockBegin
2
*PAPER_SPACE
0
ENDBLK
5
1D
100
AcDbEntity
100
AcDbBlockEnd
0
ENDSEC
0
SECTION
2
ENTITIES
0
LWPOLYLINE
5
100
100
AcDbEntity
8
0
100
AcDbPolyline
90
8
70
1
43
0.0
10
100.483768
20
-105.42435200000001
10
106.87681609969343
20
-97.734817082884661
42
-0.41421397484282052
10
108.28507399999999
20
-97.605169000000004
10
119.05042109969403
20
-106.55543708288513
42
-0.41421352439977327
10
119.18007000000001
20
-107.96369400000002
10
112.78702200000004
20
-115.65322900000001
42
-0.4142135623730851
10
111.37876400000002
20
-115.78287700000004
10
100.61341608288464
20
-106.83260990030662
42
-0.41421397484282446
0
LWPOLYLINE
5
101
100
AcDbEntity
8
0
100
AcDbPolyline
90
8
70
1
43
0.0
10
85.923715000000001
20
-75.390466000000004
10
90.330942014540483
20
-66.414033007139039
42
-0.41421421728588809
10
91.669308000000015
20
-65.957111999999995
10
104.23631419423629
20
-72.127229604388162
42
-0.41421382528686596
10
104.69323500000002
20
-73.465595999999991
10
100.28600880576327
20
-82.442029395612067
42
-0.41421343328840088
10
98.947642000000002
20
-82.898949999999999
10
86.380636007139032
20
-76.728831985459465
42
-0.41421421728587648
0
LWPOLYLINE
5
102
100
AcDbEntity
8
0
100
AcDbPolyline
90
8
70
1
43
0.0
10
47.385192000000004
20
3.5074169999999998
10
46.522328257894415
20
-6.4552870223357566
42
-0.41421443777704769
10
45.439771
20
-7.3652709999999999
10
31.491986007445391
20
-6.1572619140353781
42
-0.41421327057247426
10
30.582001999999999
20
-5.0747050000000007
10
31.444865007445451
20
4.8879990859652036
42
-0.41421353710022607
10
32.527422999999999
20
5.7979830000000012
10
46.475207928927169
20
4.5899731793737493
42
-0.41421417124807225
0
LWPOLYLINE
5
103
100
AcDbEntity
8
0
100
AcDbPolyline
90
8
70
1
43
0.0
10
18.840485999999999
20
-42.990801000000005
10
19.294115907309543
20
-33.001095041199811
42
-0.41421416084379908
10
20.338449000000001
20
-32.047488000000001
10
34.32403695468372
20
-32.682569997942196
42
-0.41421357565961203
10
35.277643999999995
20
-33.726903000000007
10
34.824014002057815
20
-43.716608954683721
42
-0.41421357565961053
10
33.779680999999997
20
-44.670216000000011
10
19.794093041199815
20
-44.035134092690456
42
-0.4142141608437977
0
LWPOLYLINE
5
104
100
AcDbEntity
8
0
100
AcDbPolyline
90
8
70
1
43
0.0
10
-14.737663999999997
20
-81.323116999999996
10
-14.737664000000004
20
-71.323116999999996
42
-0.41421414816023816
10
-13.737664000000001
20
-70.323116999999996
10
0.26233600000000062
20
-70.323116999999996
42
-0.41421356237309481
10
1.2623359999999999
20
-71.323116999999996
10
1.2623359999999963
20
-81.323116999999996
42
-0.41421356237309503
10
0.26233600000000001
20
-82.323116999999982
10
-13.737664000000001
20
-82.323116999999996
42
-0.41421414816024332
0
LWPOLYLINE
5
105
100
AcDbEntity
8
0
100
AcDbPolyline
90
8
70
1
43
0.0
10
46.047092000000006
20
-83.702378999999993
10
48.284696563824845
20
-73.955936899862252
42
-0.41421413330702467
10
49.483102000000009
20
-73.205054000000004
10
63.128120050068688
20
-76.337699781913059
42
-0.41421384783983028
10
63.879004000000002
20
-77.536104999999992
10
61.641399000000007
20
-87.282546999999994
42
-0.41421356237309503
10
60.442993999999999
20
-88.033429999999981
10
46.797976117948764
20
-84.900783486241593
42
-0.41421419884493182
0
LWPOLYLINE
5
106
100
AcDbEntity
8
0
100
AcDbPolyline
90
8
70
1
43
0.0
10
57.460824000000002
20
-46.902045000000001
10
59.858021534538921
20
-37.193622885068862
42
-0.41421413107987903
10
61.068584000000001
20
-36.462501000000003
10
74.6603727672708
20
-39.818577942534851
42
-0.41421363258514132
10
75.391496000000004
20
-41.029139000000001
10
72.994298000000001
20
-50.737561000000007
42
-0.41421356237309503
10
71.78373599999999
20
-51.468683000000006
10
58.191947117798428
20
-48.112606522924196
42
-0.41421420129210329
0
LWPOLYLINE
5
107
100
AcDbEntity
8
0
100
AcDbPolyline
90
8
70
1
43
0.0
10
105.849665
20
-10.545329000000001
10
102.77942129219593
20
-20.062346094264019
42
-0.41421384112021586
10
101.52069500000002
20
-20.707023000000003
10
88.196872292195224
20
-16.408680094263737
42
-0.41421365229840057
10
87.552194999999983
20
-15.149954999999997
10
90.622439292195565
20
-5.6329380942641123
42
-0.41421328362626414
10
91.881164999999996
20
-4.9882609999999996
10
105.20498789633268
20
-9.286603321344959
42
-0.41421420979331225
0
LWPOLYLINE
5
108
100
AcDbEntity
8
0
100
AcDbPolyline
90
8
70
1
43
0.0
10
18.577594999999999
20
-23.952317000000001
10
18.889957937556421
20
-13.95719599804856
42
-0.4142141478743826
10
19.920707
20
-12.988920999999999
10
33.913874999999997
20
-13.426228999999999
42
-0.41421356237309631
10
34.882151
20
-14.456977000000002
10
34.56978800000001
20
-24.452098000000003
42
-0.41421356237309626
10
33.539038999999995
20
-25.420373000000005
10
19.545870998048688
20
-24.983065062441586
42
-0.41421414787441913
0
LWPOLYLINE
5
109
100
AcDbEntity
8
0
100
AcDbPolyline
90
8
70
1
43
0.0
10
38.198532
20
-44.079804000000003
10
39.553957865708263
20
-34.172088981628278
42
-0.41421385256354165
10
40.680272000000002
20
-33.316859999999998
10
54.551072884080597
20
-35.214457847336647
42
-0.41421389226288535
10
55.406301999999997
20
-36.340772000000001
10
54.050875865708427
20
-46.24848698162819
42
-0.41421327218299492
10
52.924562000000002
20
-47.103716000000006
10
39.053761079175466
20
-45.206118421247041
42
-0.41421447264461186
0
LWPOLYLINE
5
110
100
AcDbEntity
8
0
100
AcDbPolyline
90
8
70
1
43
0.0
10
-9.4748719999999995
20
-62.323281000000001
10
-9.4748719999999942
20
-52.323281000000001
42
-0.41421414816024138
10
-8.4748719999999977
20
-51.323281000000009
10
5.5251280000000014
20
-51.323281000000009
42
-0.4142135623730947
10
6.5251280000000005
20
-52.323281000000001
10
6.5251280000000058
20
-62.323281000000001
42
-0.41421356237309503
10
5.5251280000000005
20
-63.323281000000009
10
-8.4748719999999995
20
-63.323280999999994
42
-0.41421414816024105
0
LWPOLYLINE
5
111
100
AcDbEntity
8
0
100
AcDbPolyline
90
8
70
1
43
0.0
10
21.692245
20
-62.169291000000008
10
22.368914864976048
20
-52.192210990842476
42
-0.41421414681756452
10
23.434290000000001
20
-51.262170000000005
10
37.402202000000003
20
-52.209508000000007
42
-0.41421356237309515
10
38.332242999999998
20
-53.274883000000003
10
37.65557299999999
20
-63.251963000000011
42
-0.41421356237309515
10
36.590198000000001
20
-64.182004000000006
10
22.622285990842464
20
-63.234666135023957
42
-0.41421414681756308
0
LWPOLYLINE
5
112
100
AcDbEntity
8
0
100
AcDbPolyline
90
8
70
1
43
0.0
10
48.398834000000008
20
-64.726897999999991
10
50.527432538726522
20
-54.956070117362501
42
-0.41421419708107554
10
51.717374999999997
20
-54.191848
10
65.39653320798196
20
-57.171885045309423
42
-0.41421350002782387
10
66.160755999999992
20
-58.361828000000003
10
64.03215704530939
20
-68.132655792018241
42
-0.41421362471836842
10
62.84221500000001
20
-68.896878000000015
10
49.163057117362428
20
-65.916839461271294
42
-0.41421419708106044
0
LWPOLYLINE
5
113
100
AcDbEntity
8
0
100
AcDbPolyline
90
8
70
1
43
0.0
10
65.049395000000004
20
-88.290810999999991
10
68.47615656064518
20
-78.896275204501023
42
-0.41421393790067901
10
69.758285000000001
20
-78.299498
10
82.910635678071884
20
-83.096963882573164
42
-0.41421366274060101
10
83.507413000000014
20
-84.379092999999997
10
80.080652000000015
20
-93.773629000000014
42
-0.41421356237308926
10
78.798523000000003
20
-94.370406000000017
10
65.646172087074063
20
-89.57294076128403
42
-0.41421421306066486
0
LWPOLYLINE
5
114
100
AcDbEntity
8
0
100
AcDbPolyline
90
8
70
1
43
0.0
10
-7.5428340000000009
20
-43.217492
10
-7.6702399743597152
20
-33.218303012415348
42
-0.41421415184436994
10
-6.6830610000000013
20
-32.205643999999999
10
7.3158019999999979
20
-32.027276000000001
42
-0.41421356237309631
10
8.3284620000000018
20
-33.014454000000001
10
8.4558679998376824
20
-43.013642987261029
42
-0.41421356610455845
10
7.4686889999999995
20
-44.026302000000001
10
-6.530174000324692
20
-44.204669974520044
42
-0.41421414811259094
0
LWPOLYLINE
5
115
100
AcDbEntity
8
0
100
AcDbPolyline
90
8
70
1
43
0.0
10
57.161572999999997
20
-27.377220999999999
10
59.218491798706651
20
-17.591051957691029
42
-0.41421384900360947
10
60.402799999999999
20
-16.818127
10
74.103435957690934
20
-19.69781320129313
42
-0.41421327574290467
10
74.876361000000003
20
-20.882121000000001
10
72.819442957690768
20
-30.6682902012938
42
-0.41421350212727143
10
71.635133999999994
20
-31.441215000000003
10
57.934497957691036
20
-28.561529201293375
42
-0.41421384900360952
0
LWPOLYLINE
5
116
100
AcDbEntity
8
0
100
AcDbPolyline
90
8
70
1
43
0.0
10
94.501040000000017
20
-58.395524999999999
10
98.689222063958638
20
-49.314824029498787
42
-0.41421421697782446
10
100.016111
20
-48.825572000000008
10
112.72909200000001
20
-54.68902700000001
42
-0.41421356237310086
10
113.218344
20
-56.015915000000007
10
109.03016117540835
20
-65.096615619684115
42
-0.41421368504198641
10
107.703273
20
-65.585867999999991
10
94.990292204907377
20
-59.722412555724276
42
-0.41421395101000968
0
LWPOLYLINE
5
117
100
AcDbEntity
8
0
100
AcDbPolyline
90
8
70
1
43
0.0
10
67.305737999999991
20
0.30385000000000001
10
65.634609329526313
20
-9.5555280558532676
42
-0.41421413992258926
10
64.481557999999993
20
-10.374353000000001
10
50.678429027926668
20
-8.0347718352375104
42
-0.41421327359866494
10
49.859603999999997
20
-6.8817219999999999
10
51.530733000000012
20
2.9776559999999996
42
-0.41421356237309492
10
52.683784000000003
20
3.796481
10
66.486913027926548
20
1.4569001647626756
42
-0.4142138511478598
0
LWPOLYLINE
5
118
100
AcDbEntity
8
0
100
AcDbPolyline
90
8
70
1
43
0.0
10
76.065189000000004
20
-31.74033
10
78.962189361519506
20
-22.169155109424285
42
-0.4142142078915122
10
80.209007
20
-21.501738000000003
10
93.608652000000035
20
-25.557538999999995
42
-0.41421356237309176
10
94.276069000000007
20
-26.804355999999999
10
91.379068083926057
20
-36.375530722723198
42
-0.41421364722426551
10
90.132250999999997
20
-37.042948000000003
10
76.732605832147868
20
-32.98714755455476
42
-0.41421412304038946
0
LWPOLYLINE
5
119
100
AcDbEntity
8
0
100
AcDbPolyline
90
8
70
1
43
0.0
10
86.678265999999994
20
-4.1906369999999997
10
84.410052493266591
20
-13.930000881986837
42
-0.41421419932697423
10
83.209294999999983
20
-14.677116000000002
10
69.574184830537874
20
-11.501618727642251
42
-0.41421321067936728
10
68.827069999999992
20
-10.300860999999999
10
71.095283948552265
20
-0.56149722090912835
42
-0.41421362880742463
10
72.296041000000002
20
0.18561800000000001
10
85.931151272357511
20
-2.9898788305381006
42
-0.41421378119809465
0
LWPOLYLINE
5
120
100
AcDbEntity
8
0
100
AcDbPolyline
90
8
70
1
43
0.0
10
94.617573000000007
20
-37.664738999999997
10
98.515243130199494
20
-28.455604055105312
42
-0.41421421599283387
10
99.825923000000003
20
-27.924457
10
112.71871235894187
20
-33.381194151918372
42
-0.41421344821298939
10
113.24985900000001
20
-34.691875000000003
10
109.35218984808161
20
-43.901010358941868
42
-0.41421344821298545
10
108.04150900000002
20
-44.432156999999997
10
95.148720055105315
20
-38.975418869800528
42
-0.4142142159928443
0
LWPOLYLINE
5
121
100
AcDbEntity
8
0
100
AcDbPolyline
90
8
70
1
43
0.0
10
-5.3674080000000002
20
-24.187929
10
-5.4948139743597118
20
-14.188740012415348
42
-0.41421415184437099
10
-4.5076349999999996
20
-13.176081000000002
10
9.4912279999999996
20
-12.997712999999997
42
-0.41421356237309503
10
10.503888000000002
20
-13.984890999999999
10
10.631293999837697
20
-23.984079987261019
42
-0.41421356610455756
10
9.6441149999999993
20
-24.996739000000005
10
-4.3547480003246912
20
-25.175106974520048
42
-0.41421414811259227
0
LWPOLYLINE
5
122
100
AcDbEntity
8
0
100
AcDbPolyline
90
8
70
1
43
0.0
10
37.941943000000002
20
-24.885349000000005
10
39.153706759433604
20
-14.959038970632932
42
-0.41421414384360378
10
40.267514000000006
20
-14.087584
10
54.164348000000004
20
-15.784054000000003
42
-0.41421356237309387
10
55.035803000000001
20
-16.897860999999995
10
53.824039000000006
20
-26.824171000000003
42
-0.41421356237309731
10
52.710232000000005
20
-27.695626000000004
10
38.813397970632934
20
-25.999156240566393
42
-0.41421414384360439
0
LWPOLYLINE
5
123
100
AcDbEntity
8
0
100
AcDbPolyline
90
8
70
1
43
0.0
10
103.41452000000001
20
-84.28428599999998
10
109.08720974387572
20
-76.048959823575643
42
-0.41421421093721211
10
110.47801200000002
20
-75.792697000000004
10
122.00746800000002
20
-83.734462000000008
42
-0.41421356237309931
10
122.263732
20
-85.125264000000001
10
116.59104132179405
20
-93.360589532835689
42
-0.41421372852237148
10
115.20023999999999
20
-93.61685300000002
10
103.67078335641193
20
-85.67508893432975
42
-0.41421404478750651
0
LWPOLYLINE
5
124
100
AcDbEntity
8
0
100
AcDbPolyline
90
8
70
1
43
0.0
10
67.395318000000003
20
-69.000674000000004
10
70.558431399858662
20
-59.514119799894694
42
-0.41421411808348491
10
71.823397999999997
20
-58.881776000000002
10
85.104573699929944
20
-63.310135899947383
42
-0.41421365501845231
10
85.736918000000003
20
-64.575102000000001
10
82.573803999999996
20
-74.061655999999999
42
-0.4142135623730992
10
81.30883799999998
20
-74.694000000000003
10
68.027662099964431
20
-70.265640700193629
42
-0.4142142107288217
0
LWPOLYLINE
5
125
100
AcDbEntity
8
0
100
AcDbPolyline
90
8
70
1
43
0.0
10
83.439960999999983
20
-95.391490000000005
10
88.365714900022866
20
-86.688792943412821
42
-0.4142142164377689
10
89.728560999999999
20
-86.311098000000015
10
101.91233675736932
20
-93.207155428673389
42
-0.41421330747705992
10
102.29003100000001
20
-94.569999999999993
10
97.364277428673574
20
-103.27269724263033
42
-0.41421381726917605
10
96.001430999999997
20
-103.650392
10
83.817654943412208
20
-96.754335099978107
42
-0.41421421643831124
0
LWPOLYLINE
5
126
100
AcDbEntity
8
0
100
AcDbPolyline
90
8
70
1
43
0.0
10
27.580469000000001
20
4.9229849999999997
10
27.327424049953542
20
-5.0738130265765822
42
-0.41421414056113415
10
26.302439
20
-6.0481879999999997
10
12.306922
20
-5.6939239999999991
42
-0.4142135623730952
10
11.332547000000002
20
-4.668939
10
11.585592000640343
20
5.3278590252969158
42
-0.41421355496142837
10
12.610577000000001
20
6.3022340000000012
10
26.606094001280638
20
5.9479700505938311
42
-0.41421414797252681
0
LWPOLYLINE
5
127
100
AcDbEntity
8
0
100
AcDbPolyline
90
8
70
1
43
0.0
10
76.268483000000003
20
-51.719560999999999
10
79.563742580292114
20
-42.278095202533038
42
-0.41421393542357227
10
80.837413999999995
20
-41.663474999999998
10
94.055466311120952
20
-46.276836108587446
42
-0.41421346585716712
10
94.670086999999995
20
-47.550508999999998
10
91.374828000000008
20
-56.991975000000004
42
-0.4142135623730942
10
90.101156000000003
20
-57.606594999999999
10
76.883103891412958
20
-52.993233311120633
42
-0.41421383890744229
0
LWPOLYLINE
5
128
100
AcDbEntity
8
0
100
AcDbPolyline
90
8
70
1
43
0.0
10
7.8745439999999984
20
5.1953389999999997
10
8.1206119501973859
20
-4.8016329766113826
42
-0.41421415518966276
10
7.1455200000000012
20
-5.8259369999999997
10
-6.8502409999999987
20
-6.1704299999999987
42
-0.4142135623730957
10
-7.8745439999999984
20
-5.1953389999999997
10
-8.1206119993945443
20
4.8016329754014446
42
-0.41421356958002181
10
-7.1455200000000012
20
5.8259369999999997
10
6.8502410012109616
20
6.1704299508028395
42
-0.41421414798301132
0
LWPOLYLINE
5
129
100
AcDbEntity
8
0
100
AcDbPolyline
90
8
70
1
43
0.0
10
111.89920600000001
20
-67.129919999999998
10
117.11808883727582
20
-58.599780900442731
42
-0.41421421491554916
10
118.49299100000002
20
-58.268656000000014
10
130.4351847276323
20
-65.575092445177859
42
-0.41421331253122506
10
130.76631
20
-66.949994000000004
10
125.54742655482215
20
-75.480132727632309
42
-0.41421331253123272
10
124.17252500000001
20
-75.811257999999981
10
112.23033161798752
20
-68.504820989911622
42
-0.4142141179307981
0
LWPOLYLINE
5
130
100
AcDbEntity
8
0
100
AcDbPolyline
90
65
70
1
43
0.0
10
117.05609602022679
20
-52.898381832676421
42
0.032963797374050696
10
115.89898301535051
20
-52.269178827684769
10
110.16316480161477
20
-49.623716149709338
42
-0.40494012715276334
10
109.41002197027403
20
-47.676960501992127
10
116.02818096842046
20
-32.040050503997357
42
0.41421356541201027
10
115.49703449195859
20
-30.729369977975423
10
103.95379063574212
20
-25.843812601463689
42
-0.38857736646125735
10
103.11088873029871
20
-24.001905653016063
10
108.3873150614213
20
-7.6462596606204913
42
0.41033593947933339
10
107.75522741743197
20
-6.3916873554691964
10
89.631538432862001
20
-0.27845054232955246
42
0.023292429242808853
10
88.736289237183115
20
-0.022233153590336951
10
69.878308645655778
20
4.4364090955682016
42
0.016068518867350459
10
69.248546976328399
20
4.5640910029800885
10
50.447391083558671
20
7.7508190306634823
42
0.020379537383299832
10
49.639125690311154
20
7.8541451315099629
10
30.665440038543849
20
9.4974441310868425
42
0.017532069479328685
10
29.965296237663743
20
9.5334163810680419
10
14.182775788108621
20
9.7902631130975184
42
0.0093892048216853551
10
13.807241879754086
20
9.7893223356034813
10
-8.7533896577636288
20
9.309091319704514
42
0.41518806936691299
10
-9.731805451143833
20
8.2847112244495893
10
-9.3261915254623524
20
-8.1942659717723529
42
-0.41769393611702021
10
-10.806626431148967
20
-9.7310540799493737
10
-10.839535238654729
20
-9.7314733922225916
42
0.41421354075417638
10
-11.826713466028201
20
-10.744132762285673
10
-11.616490802947439
20
-27.243094700410158
42
-0.41421357124904612
10
-13.097258300168992
20
-28.762083757494523
10
-15.396018105073178
20
-28.791373494645015
42
0.41421357949392895
10
-16.383196436195572
20
-29.804032894182086
10
-16.17255612540362
20
-46.335736661012952
42
-0.35666555791815413
10
-17.355146951601039
20
-47.820906402240993
42
0.35307919943055849
10
-18.143622000000001
20
-48.798278999999994
10
-18.143622000000004
20
-84.84811804289599
42
0.41421354980915276
10
-17.143622042895984
20
-85.84811804289599
10
4.1685850097360566
20
-85.84811895710402
42
0.41421355952146999
10
5.1685850526320296
20
-84.848119009736052
10
5.1685859210519443
20
-68.34828200152009
42
-0.41421356266991344
10
6.6685860015200893
20
-66.848282080468138
10
23.470780765009867
20
-66.848282981829044
42
-0.016931306674501788
10
24.147450866941806
20
-66.871203406765687
10
42.052826265277133
20
-68.08559101490097
42
-0.036712049531551716
10
43.504755397454417
20
-68.291843449094543
10
46.323216820389533
20
-68.905852503978693
42
-0.41748897080342257
10
47.465893106821014
20
-70.70711727282962
10
43.772004457520985
20
-86.796764865206214
42
0.41421355239098701
10
44.522888127167789
20
-87.995169490737879
10
61.472126831774077
20
-91.886405137123987
42
-0.031774632183121279
10
62.689102735446284
20
-92.248504947694784
10
79.120586009325706
20
-98.297292312705849
42
-0.040602242568176551
10
80.591759992535415
20
-98.978936882962842
10
95.668884599920972
20
-107.51263833954565
42
-0.044666453433752785
10
97.136177677732604
20
-108.52580125089629
10
110.29786858575341
20
-119.46837821923421
42
0.41421355592820525
10
111.70612679768607
20
-119.33872959982082
10
122.6062741675857
20
-106.22807344195023
42
0.41421357183872198
10
122.47662553738894
20
-104.81981519243649
10
115.94625473364813
20
-99.3904912437185
42
-0.38797484847491631
10
115.66991303424669
20
-97.38615763916232
10
125.51924215155701
20
-83.087396416889675
42
0.41421350204908874
10
125.26297869994453
20
-81.696594981943065
10
125.21530487176256
20
-81.66375609305193
42
-0.39844872323204628
10
124.78668779912536
20
-79.645624975824489
10
133.91452528821534
20
-64.726393850419527
42
0.40985968266479333
10
133.59604101226893
20
-63.359355804827224
0
LWPOLYLINE
5
131
100
AcDbEntity
8
0
100
AcDbPolyline
90
8
70
1
43
0.0
10
107.01511600000001
20
-45.110771999999997
42
0.93921739598826359
10
107.94008690372087
20
-44.735933382490323
10
112.86618100000001
20
-33.096907000000002
42
0.9392180624447265
10
112.49134171077436
20
-32.171936320633478
10
100.852316
20
-27.245842000000003
42
0.93921806244474149
10
99.927345320633492
20
-27.620681289225637
10
95.001250999999996
20
-39.259706999999999
42
0.93921739598829623
10
95.376089617509706
20
-40.184677903720861
0
LWPOLYLINE
5
132
100
AcDbEntity
8
0
100
AcDbPolyline
90
8
70
1
43
0.0
10
8.9765130000000006
20
-26.030329000000005
42
0.93921768375964432
10
9.6731806949944907
20
-25.315678275975539
10
9.5121589999999934
20
-12.678137
42
0.93921901297242216
10
8.7975072286253848
20
-11.981470252673137
10
-3.8400329999999983
20
-12.142491
42
0.93921901297241883
10
-4.5366997473268649
20
-12.857142771374619
10
-4.3756789999999945
20
-25.494683000000002
42
0.93921768375964598
10
-3.6610282759755424
20
-26.191350694994497
0
LWPOLYLINE
5
133
100
AcDbEntity
8
0
100
AcDbPolyline
90
8
70
1
43
0.0
10
51.910325
20
-28.630586000000001
42
0.93921745020272807
10
52.696357913265722
20
-28.015585059498225
10
54.227854000000008
20
-15.470153
42
0.93921875857316928
10
53.612851913018389
20
-14.684120873202248
10
41.06742100000001
20
-13.152623999999999
42
0.93921875857317971
10
40.281388873202246
20
-13.767626086981622
10
38.749892000000003
20
-26.313057000000004
42
0.93921745020270642
10
39.364892940501768
20
-27.099089913265729
0
LWPOLYLINE
5
134
100
AcDbEntity
8
0
100
AcDbPolyline
90
8
70
1
43
0.0
10
114.05819700000001
20
-94.074825000000004
42
0.9392167917585249
10
115.03970935080329
20
-93.893974957862341
10
122.209176
20
-83.485703999999998
42
0.93921772610933763
10
122.02832497208503
20
-82.504191767606954
10
111.62005500000001
20
-75.334725000000006
42
0.93921772610931009
10
110.63854276760695
20
-75.515576027914975
10
103.46907600000002
20
-85.923846000000012
42
0.93921679175854167
10
103.64992604213766
20
-86.905358350803283
0
LWPOLYLINE
5
135
100
AcDbEntity
8
0
100
AcDbPolyline
90
8
70
1
43
0.0
10
80.338852000000003
20
-75.451053999999999
42
0.93921572742818449
10
81.231563054022118
20
-75.004798684875325
10
85.229283999999993
20
-63.015154000000003
42
0.93921917531058485
10
84.783025311558902
20
-62.122444375743164
10
72.793384000000003
20
-58.124722000000006
42
0.93921917531060028
10
71.900674375743165
20
-58.570980688441111
10
67.902951999999999
20
-70.560621999999995
42
0.93921572742816817
10
68.349207315124659
20
-71.45333305402211
0
LWPOLYLINE
5
136
100
AcDbEntity
8
0
100
AcDbPolyline
90
8
70
1
43
0.0
10
94.904133999999999
20
-104.20711400000002
42
0.93921874255805293
10
95.865917225473837
20
-103.94056795248707
10
102.091365
20
-92.941606999999991
42
0.93921966340351604
10
101.82481799500424
20
-91.979823976292622
10
90.825858000000011
20
-85.754376000000008
42
0.9392196634035499
10
89.864074976292599
20
-86.020923004995794
10
83.638627
20
-97.019882999999993
42
0.93921874255805293
10
83.90517304751296
20
-97.981666225473845
0
LWPOLYLINE
5
137
100
AcDbEntity
8
0
100
AcDbPolyline
90
8
70
1
43
0.0
10
89.120694999999998
20
-58.350031999999992
42
0.93921862304805237
10
90.019547908039911
20
-57.916283316923973
10
94.184281999999996
20
-45.983625000000004
42
0.93922009319797695
10
93.750531870203062
20
-45.084772681460763
10
81.817875000000001
20
-40.920037999999998
42
0.93922009319796229
10
80.919022681460717
20
-41.353788129796946
10
76.754288000000003
20
-53.286444999999993
42
0.93921862304800685
10
77.188036683075993
20
-54.185297908039942
0
LWPOLYLINE
5
138
100
AcDbEntity
8
0
100
AcDbPolyline
90
8
70
1
43
0.0
10
52.111195000000009
20
-48.026990000000005
42
0.93921719351540978
10
52.906055464074065
20
-47.423441200292906
10
54.619119000000005
20
-34.901509999999995
42
0.93921889698305783
10
54.015568692924688
20
-34.106650538156352
10
41.493639000000002
20
-32.393585999999999
42
0.9392188969830515
10
40.698779538156344
20
-32.997136307075309
10
38.985714999999999
20
-45.519065999999995
42
0.93921719351539978
10
39.589263799707084
20
-46.313926464074072
0
LWPOLYLINE
5
139
100
AcDbEntity
8
0
100
AcDbPolyline
90
8
70
1
43
0.0
10
4.8444109999999991
20
-64.348281000000014
42
0.93921783224122157
10
5.5501279999999973
20
-63.642564000000014
10
5.5501280000000008
20
-51.003997999999996
42
0.93921916050028487
10
4.8444099414202757
20
-50.298281933576838
10
-7.794155000000007
20
-50.298281000000003
42
0.93921916050028065
10
-8.499871066423184
20
-51.003999058579737
10
-8.4998719999999928
20
-63.642564000000007
42
0.93921783224122701
10
-7.7941549999999982
20
-64.348281000000014
0
LWPOLYLINE
5
140
100
AcDbEntity
8
0
100
AcDbPolyline
90
8
70
1
43
0.0
10
32.826636999999998
20
-26.423609999999996
42
0.93921744319398848
10
33.554055457281869
20
-25.740281045542318
10
33.948836
20
-13.107883000000001
42
0.93921865813926386
10
33.265506051065493
20
-12.380465365989675
10
20.633108999999994
20
-11.985684000000001
42
0.93921865813926719
10
19.905691365989682
20
-12.669013948934516
10
19.510909999999999
20
-25.301410999999998
42
0.93921744319398937
10
20.194238954457688
20
-26.028829457281873
0
LWPOLYLINE
5
141
100
AcDbEntity
8
0
100
AcDbPolyline
90
8
70
1
43
0.0
10
-6.4902310000000005
20
6.8673759999999993
42
0.93921788445805843
10
-7.1783701687607788
20
6.144507971231981
10
-6.8673760000000073
20
-6.4902309999999996
42
0.93921916970728625
10
-6.1445069694666827
20
-7.1783692404835904
10
6.4902309999999908
20
-6.8673759999999984
42
0.93921916970729713
10
7.1783692404835922
20
-6.1445069694666827
10
6.8673760000000073
20
6.4902309999999996
42
0.93921788445805177
10
6.1445079712319819
20
7.1783701687607815
0
LWPOLYLINE
5
142
100
AcDbEntity
8
0
100
AcDbPolyline
90
8
70
1
43
0.0
10
123.056929
20
-76.330338999999995
42
0.9392176473618562
10
124.02722028637932
20
-76.096657949758864
10
130.62313999999998
20
-65.315786000000003
42
0.93921857427425259
10
130.3894579796175
20
-64.345494883819015
10
119.60858700000003
20
-57.749575
42
0.93921857427420252
10
118.63829588381901
20
-57.98325702038251
10
112.042376
20
-68.764127999999999
42
0.93921764736184121
10
112.27605705024115
20
-69.734419286379335
0
LWPOLYLINE
5
143
100
AcDbEntity
8
0
100
AcDbPolyline
90
8
70
1
43
0.0
10
106.65584600000001
20
-66.231543000000002
42
0.93921707842601054
10
107.59225377313317
20
-65.886270356582898
10
112.88551499999998
20
-54.409566000000005
42
0.93921851000063716
10
112.54024089913513
20
-53.47315866272109
10
101.06353800000001
20
-48.179896999999997
42
0.93921851000060086
10
100.1271306627211
20
-48.525171100864867
10
94.833868999999993
20
-60.001874000000008
42
0.93921707842598756
10
95.179141643417069
20
-60.938281773133191
0
LWPOLYLINE
5
144
100
AcDbEntity
8
0
100
AcDbPolyline
90
8
70
1
43
0.0
10
53.526218999999998
20
4.6933110000000005
42
0.93921694065993599
10
52.712492421891852
20
4.115452261476384
10
50.600424000000004
20
-8.345387999999998
42
0.93921823631121404
10
51.178283908778795
20
-9.159113852815576
10
63.639122999999998
20
-11.271183000000002
42
0.9392182363112036
10
64.452848852815592
20
-10.693323091221213
10
66.564918000000006
20
1.7675160000000023
42
0.93921694065991468
10
65.987059261476389
20
2.5812425781081645
0
LWPOLYLINE
5
145
100
AcDbEntity
8
0
100
AcDbPolyline
90
8
70
1
43
0.0
10
89.183781999999994
20
-37.826790000000003
42
0.93921866067224302
10
90.063682835970837
20
-37.35578207499281
10
93.725076000000001
20
-25.25919
42
0.93921990782796039
10
93.254066869730238
20
-24.379289715067518
10
81.157476000000003
20
-20.717896000000003
42
0.93921990782793863
10
80.277575715067513
20
-21.188905130269752
10
76.616181999999995
20
-33.285496000000009
42
0.93921866067221171
10
77.087189925007195
20
-34.165396835970839
0
LWPOLYLINE
5
146
100
AcDbEntity
8
0
100
AcDbPolyline
90
8
70
1
43
0.0
10
73.191507999999999
20
1.0295019999999997
42
0.93921850208909219
10
72.344113898296726
20
0.50225048367310676
10
69.477417000000003
20
-11.806909000000001
42
0.93921977682485436
10
70.004669708991273
20
-12.654302459530658
10
82.313828000000001
20
-15.521000000000003
42
0.93921977682484314
10
83.161221459530651
20
-14.99374729100875
10
86.027918999999997
20
-2.6845889999999972
42
0.9392185020890893
10
85.500667483673126
20
-1.8371948982967208
0
LWPOLYLINE
5
147
100
AcDbEntity
8
0
100
AcDbPolyline
90
8
70
1
43
0.0
10
77.807777999999999
20
-95.100081000000003
42
0.93921804876584736
10
78.712598976702225
20
-94.67892535626298
10
83.043533000000011
20
-82.805577999999997
42
0.93921957227318942
10
82.622375848651174
20
-81.9007576131999
10
70.749030000000005
20
-77.569823000000014
42
0.93921957227318986
10
69.844209613199894
20
-77.99098015134885
10
65.513274999999993
20
-89.864326000000005
42
0.93921804876588033
10
65.934430643737045
20
-90.769146976702203
0
LWPOLYLINE
5
148
100
AcDbEntity
8
0
100
AcDbPolyline
90
8
70
1
43
0.0
10
6.801086999999999
20
-45.059892000000005
42
0.93921768375964432
10
7.4977546949944962
20
-44.345241275975539
10
7.3367329999999953
20
-31.707700000000003
42
0.93921901297242083
10
6.6220812286253885
20
-31.01103325267314
10
-6.0154589999999963
20
-31.172053999999999
42
0.93921901297241461
10
-6.7121257473268692
20
-31.886705771374615
10
-6.5511050000000104
20
-44.524246000000005
42
0.93921768375964509
10
-5.8364542759755365
20
-45.220913694994486
0
LWPOLYLINE
5
149
100
AcDbEntity
8
0
100
AcDbPolyline
90
8
70
1
43
0.0
10
70.758139
20
-32.304279000000008
42
0.93921650561370396
10
71.593925197170861
20
-31.758812888267116
10
74.19357500000001
20
-19.390498999999998
42
0.93921814310053597
10
73.648107374411723
20
-18.554713660705019
10
61.279794999999993
20
-15.955063000000003
42
0.93921814310054008
10
60.444009660705035
20
-16.500530625588276
10
57.844358999999997
20
-28.868843000000002
42
0.93921650561370607
10
58.38982511173289
20
-29.704629197170856
0
LWPOLYLINE
5
150
100
AcDbEntity
8
0
100
AcDbPolyline
90
8
70
1
43
0.0
10
35.841681999999999
20
-65.15859300000001
42
0.93921783535514314
10
36.593535020447014
20
-64.502246984293748
10
37.448750000000004
20
-51.892649000000006
42
0.93921915493030839
10
36.792402872286182
20
-51.140796833738278
10
24.18280600000001
20
-50.285581000000008
42
0.9392191549303176
10
23.430953833738286
20
-50.941928127713823
10
22.575738000000012
20
-63.551524999999998
42
0.93921783535516534
10
23.232084015706253
20
-64.303378020447013
0
CIRCLE
5
151
100
AcDbEntity
8
0
100
AcDbCircle
10
103.50000000000001
20
-80.5
30
0
40
1.0500000000000043
210
0
220
-0
230
1
0
CIRCLE
5
152
100
AcDbEntity
8
0
100
AcDbCircle
10
56.400000000000006
20
-43.100000000000009
30
0
40
1.0500000000000043
210
0
220
-0
230
1
0
CIRCLE
5
153
100
AcDbEntity
8
0
100
AcDbCircle
10
64.299999999999997
20
-84.400000000000006
30
0
40
1.0500000000000043
210
0
220
-0
230
1
0
LWPOLYLINE
5
154
100
AcDbEntity
8
0
100
AcDbPolyline
90
8
70
1
43
0.0
10
13.317013000000003
20
7.3096800000000002
42
0.93921761073794552
10
12.593664622218139
20
6.622047521352787
10
12.273850999999993
20
-6.0124719999999998
42
0.93921893646133336
10
12.96148455844612
20
-6.735819473022354
10
25.596002999999996
20
-7.0556339999999995
42
0.93921893646133547
10
26.319350473022354
20
-6.3680004415538862
10
26.639165000000009
20
6.2665180000000031
42
0.93921761073794052
10
25.951532521352789
20
6.9898663777818619
0
LWPOLYLINE
5
155
100
AcDbEntity
8
0
100
AcDbPolyline
90
8
70
1
43
0.0
10
61.958917000000007
20
-69.753490999999997
42
0.93921676754738359
10
62.798679678219862
20
-69.214166179243122
10
65.488923
20
-56.865241000000005
42
0.93921804762328776
10
64.949596990929138
20
-56.025478983715956
10
52.600673
20
-53.335234999999997
42
0.93921804762328776
10
51.760910983715945
20
-53.874561009070874
10
49.070667000000007
20
-66.223484999999997
42
0.93921676754734673
10
49.609991820756861
20
-67.063247678219852
0
LWPOLYLINE
5
156
100
AcDbEntity
8
0
100
AcDbPolyline
90
8
70
1
43
0.0
10
33.053167999999999
20
-45.663282000000002
42
0.93921640865263323
10
33.790171601341349
20
-44.990305320637106
10
34.363495
20
-32.364748999999996
42
0.93921773176076639
10
33.690517225059921
20
-31.627746279822798
10
21.064962000000005
20
-31.054422000000002
42
0.93921773176076084
10
20.327959279822785
20
-31.727399774940075
10
19.754635
20
-44.352955000000009
42
0.93921640865261269
10
20.427611679362894
20
-45.089958601341351
0
LWPOLYLINE
5
157
100
AcDbEntity
8
0
100
AcDbPolyline
90
8
70
1
43
0.0
10
70.877155000000002
20
-52.300615000000008
42
0.93921690412085501
10
71.731469822320847
20
-51.784649203046982
10
74.761183000000003
20
-39.514596999999995
42
0.93921782149765409
10
74.24521633867495
20
-38.660282628399443
10
61.975165000000004
20
-35.630569000000001
42
0.93921782149767197
10
61.120850628399438
20
-36.146535661325053
10
58.091137000000003
20
-48.416587
42
0.93921690412086001
10
58.607102796953029
20
-49.270901822320852
0
LWPOLYLINE
5
158
100
AcDbEntity
8
0
100
AcDbPolyline
90
8
70
1
43
0.0
10
59.550182999999997
20
-88.880122999999998
42
0.93921799684944574
10
60.395918274573745
20
-88.350211851046211
10
63.223929000000005
20
-76.032106999999996
42
0.93922009996821099
10
62.694015886667003
20
-75.186372791090008
10
50.375912999999997
20
-72.358361000000002
42
0.93922009996820688
10
49.530178791089995
20
-72.888274113332997
10
46.702167000000003
20
-85.206377000000003
42
0.9392179968494081
10
47.232078148953789
20
-86.052112274573744
0
CIRCLE
5
159
100
AcDbEntity
8
0
100
AcDbCircle
10
49.100000000000001
20
-0.10000000000000002
30
0
40
1.0500000000000043
210
0
220
-0
230
1
0
CIRCLE
5
160
100
AcDbEntity
8
0
100
AcDbCircle
10
-14.000000000000002
20
-57.200000000000003
30
0
40
1.0499999999999998
210
0
220
-0
230
1
0
CIRCLE
5
161
100
AcDbEntity
8
0
100
AcDbCircle
10
-7.4000000000000012
20
-21.400000000000002
30
0
40
1.0499999999999998
210
0
220
-0
230
1
0
LWPOLYLINE
5
162
100
AcDbEntity
8
0
100
AcDbPolyline
90
8
70
1
43
0.0
10
33.294044
20
6.7604229999999994
42
0.93921757845522702
10
32.530065021182295
20
6.1182320847748066
10
31.439529999999998
20
-6.4731970000000016
42
0.93921894688686614
10
32.081722084745834
20
-7.2371751146965284
10
44.67315
20
-8.3277110000000008
42
0.9392189468868648
10
45.437128114696527
20
-7.6855189152541765
10
46.527664000000001
20
4.9059089999999994
42
0.93921757845522991
10
45.885473084774802
20
5.6698879788177079
0
LWPOLYLINE
5
163
100
AcDbEntity
8
0
100
AcDbPolyline
90
8
70
1
43
0.0
10
-0.41838100000000106
20
-83.348117000000016
42
0.9392178322412299
10
0.28733599999999815
20
-82.642399999999981
10
0.28733600000000697
20
-70.003834000000012
42
0.93921916050028276
10
-0.41838205857972538
20
-69.298117933576833
10
-13.056947000000001
20
-69.298117000000005
42
0.93921916050028609
10
-13.762663066423183
20
-70.003835058579725
10
-13.762664000000004
20
-82.642399999999995
42
0.93921783224122657
10
-13.056946999999999
20
-83.348117000000002
0
CIRCLE
5
164
100
AcDbEntity
8
0
100
AcDbCircle
10
94.200000000000003
20
-33.799999999999997
30
0
40
1.0500000000000043
210
0
220
-0
230
1
0
LWPOLYLINE
5
165
100
AcDbEntity
8
0
100
AcDbPolyline
90
8
70
1
43
0.0
10
97.884860000000003
20
-83.519027000000023
42
0.93921768016039719
10
98.829367888231317
20
-83.196570030491458
10
104.39947099999999
20
-71.851646000000002
42
0.93921834963443973
10
104.07701334417411
20
-70.907138299002568
10
92.732089999999999
20
-65.337035
42
0.93921834963445727
10
91.787582299002608
20
-65.659492655825929
10
86.217479000000012
20
-77.00441600000002
42
0.93921768016039353
10
86.539935969508534
20
-77.948923888231306
0
LWPOLYLINE
5
166
100
AcDbEntity
8
0
100
AcDbPolyline
90
8
70
1
43
0.0
10
92.843705
20
-4.2217640000000003
42
0.93921682481066482
10
91.955400320740708
20
-4.676722860342589
10
88.075051999999999
20
-16.704867
42
0.93921892614774227
10
88.530012907614434
20
-17.593170787827596
10
100.55815500000001
20
-21.473520000000001
42
0.93921892614774938
10
101.44645878782757
20
-21.018559092385573
10
105.32680800000001
20
-8.9904169999999972
42
0.93921682481067859
10
104.87184913965741
20
-8.1021123207406838
0
LWPOLYLINE
5
167
100
AcDbEntity
8
0
100
AcDbPolyline
90
8
70
1
43
0.0
10
110.20003700000002
20
-116.13586900000001
42
0.93921674842178748
10
111.19386831962839
20
-116.04437401982906
10
119.27376500000001
20
-106.32590500000001
42
0.93921862975562553
10
119.18226802152945
20
-105.33207373861492
10
109.463801
20
-97.252177000000017
42
0.93921862975559212
10
108.46996973861492
20
-97.343673978470534
10
100.39007300000002
20
-107.062141
42
0.93921674842184055
10
100.48156798017098
20
-108.05597231962838
0
ENDSEC
0
SECTION
2
OBJECTS
0
DICTIONARY
5
C
100
AcDbDictionary
3
ACAD_GROUP
350
D
3
ACAD_MLINESTYLE
350
17
0
DICTIONARY
5
D
100
AcDbDictionary
0
DICTIONARY
5
1A
330
C
100
AcDbDictionary
0
DICTIONARY
5
17
100
AcDbDictionary
0
ENDSEC
0
EOF
